<?xml version="1.0" encoding="utf-8"?>
<!-- Generator: Adobe Illustrator 29.1.0, SVG Export Plug-In . SVG Version: 9.03 Build 55587)  -->
<svg version="1.1" id="Layer_1" xmlns="http://www.w3.org/2000/svg" xmlns:xlink="http://www.w3.org/1999/xlink" x="0px" y="0px"
	 viewBox="0 0 1024 1024" style="enable-background:new 0 0 1024 1024;" xml:space="preserve">
<style type="text/css">
	.st0{fill:none;stroke:#BFB6BE;stroke-width:40;stroke-linecap:round;stroke-linejoin:round;stroke-miterlimit:10;}
	.st1{fill:#BFB6BE;stroke:#1B1464;stroke-width:24;stroke-linecap:round;stroke-linejoin:round;stroke-miterlimit:10;}
	.st2{fill:#0071BC;stroke:#1B1464;stroke-width:24;stroke-linecap:round;stroke-linejoin:round;stroke-miterlimit:10;}
	.st3{fill:none;stroke:#1B1464;stroke-width:4;stroke-linecap:round;stroke-linejoin:round;stroke-miterlimit:10;}
	.st4{fill:none;stroke:#1B1464;stroke-width:24;stroke-linecap:round;stroke-linejoin:round;stroke-miterlimit:10;}
	.st5{fill:#29ABE2;stroke:#1B1464;stroke-width:24;stroke-linecap:round;stroke-linejoin:round;stroke-miterlimit:10;}
	.st6{fill:#00FF00;stroke:#1B1464;stroke-width:24;stroke-linecap:round;stroke-linejoin:round;stroke-miterlimit:10;}
</style>
<g>
	<path class="st0" d="M873.63,759.78c0,0,56.57,56.57,0,113.14s-113.14,0-113.14,0S341.88,409.06,319.26,386.43
		c-22.63-22.63-90.51,45.25-169.71-33.94s-33.94-169.71-33.94-169.71l79.2,79.2c33.94,33.94,101.82-33.94,67.88-67.88l-79.2-79.2
		c0,0,101.82-33.94,169.71,33.94s11.31,147.08,33.94,169.71C409.76,341.18,873.63,759.78,873.63,759.78z M839.69,838.98
		c12.5-12.5,12.5-32.76,0-45.25c-12.5-12.5-32.76-12.5-45.25,0c-12.5,12.5-12.5,32.76,0,45.25
		C806.93,851.48,827.19,851.48,839.69,838.98z"/>
	<path class="st1" d="M873.63,759.78c0,0,56.57,56.57,0,113.14s-113.14,0-113.14,0S341.88,409.06,319.26,386.43
		c-22.63-22.63-90.51,45.25-169.71-33.94s-33.94-169.71-33.94-169.71l79.2,79.2c33.94,33.94,101.82-33.94,67.88-67.88l-79.2-79.2
		c0,0,101.82-33.94,169.71,33.94s11.31,147.08,33.94,169.71C409.76,341.18,873.63,759.78,873.63,759.78z M839.69,838.98
		c12.5-12.5,12.5-32.76,0-45.25c-12.5-12.5-32.76-12.5-45.25,0c-12.5,12.5-12.5,32.76,0,45.25
		C806.93,851.48,827.19,851.48,839.69,838.98z"/>
</g>
<g>
	<path class="st0" d="M874.04,240.47c0,0,45.25-45.25,0-90.51c-45.25-45.25-90.51,0-90.51,0S636.45,297.04,613.82,319.67
		c-22.63,22.63-22.63,45.25-45.25,67.88c-22.63,22.63-45.25,22.63-45.25,45.25l22.63,22.63L240.47,760.9l-45.25,22.63l-56.57,79.2
		l22.63,22.63l79.2-56.57l22.63-45.25l305.47-305.47l22.63,22.63c22.63,0,22.63-22.63,45.25-45.25
		c22.63-22.63,45.25-22.63,67.88-45.25C726.96,387.55,874.04,240.47,874.04,240.47z"/>
	<g>
		<polygon class="st1" points="568.57,478.06 263.1,783.53 240.47,828.78 161.28,885.35 138.65,862.72 195.22,783.53 240.47,760.9 
			545.94,455.43 		"/>
		<path class="st2" d="M523.31,432.8c0-22.63,22.63-22.63,45.25-45.25c22.63-22.63,22.63-45.25,45.25-67.88
			c22.63-22.63,169.71-169.71,169.71-169.71s45.25-45.25,90.51,0c45.25,45.25,0,90.51,0,90.51S726.96,387.55,704.33,410.18
			c-22.63,22.63-45.25,22.63-67.88,45.25c-22.63,22.63-22.63,45.25-45.25,45.25L523.31,432.8z"/>
	</g>
	<path class="st3" d="M557.25,421.49l45.25,45.25 M670.39,376.24L840.1,206.53 M828.78,195.22L659.08,364.92 M817.47,183.9
		L647.76,353.61 M806.16,172.59L636.45,342.29 M851.41,217.84L681.71,387.55"/>
</g>
<g>
	<g>
		<line class="st0" x1="512" y1="912" x2="512" y2="608"/>
		<path class="st0" d="M416,960h192c0-16,0-48-32-48H448C416,912,416,944,416,960z"/>
		<path class="st0" d="M496,176c0,0,0-23.16,0-32s7.16-16,16-16s16,7.16,16,16s0,32,0,32"/>
		<path class="st0" d="M400,576c0-80,48-112,48-160s-64-144-48-160s80-16,64-80h96c-16,64,48,64,64,80s-48,112-48,160s48,80,48,160
			C624,608,400,608,400,576z"/>
	</g>
	<g>
		<line class="st4" x1="512" y1="912" x2="512" y2="608"/>
		<path class="st5" d="M416,960h192c0-16,0-48-32-48H448C416,912,416,944,416,960z"/>
		<path class="st5" d="M496,176c0,0,0-23.16,0-32s7.16-16,16-16s16,7.16,16,16s0,32,0,32"/>
		<path class="st2" d="M400,576c0-80,48-112,48-160s-64-144-48-160s80-16,64-80h96c-16,64,48,64,64,80s-48,112-48,160s48,80,48,160
			C624,608,400,608,400,576z"/>
	</g>
	<g>
		<polygon class="st6" points="512,176 448,384 512,592 576,384 		"/>
		<polygon class="st3" points="512,176 480,384 512,592 544,384 		"/>
		<line class="st3" x1="512" y1="176" x2="512" y2="608"/>
		<line class="st3" x1="448" y1="384" x2="576" y2="384"/>
	</g>
</g>
<g>
</g>
<g>
</g>
<g>
</g>
<g>
</g>
<g>
</g>
<g>
</g>
<g>
</g>
<g>
</g>
<g>
</g>
<g>
</g>
<g>
</g>
<g>
</g>
<g>
</g>
<g>
</g>
<g>
</g>
<g>
</g>
<g>
</g>
</svg>
